<?xml version="1.0" encoding="utf-8"?>
<!-- Generator: Adobe Illustrator 18.1.1, SVG Export Plug-In . SVG Version: 6.00 Build 0)  -->
<svg version="1.1" id="Layer_1" xmlns="http://www.w3.org/2000/svg" xmlns:xlink="http://www.w3.org/1999/xlink" x="0px" y="0px"
	 width="82.7px" height="82.7px" viewBox="0 0 82.7 82.7" style="enable-background:new 0 0 82.7 82.7;" xml:space="preserve">
<path d="M40.7-0.3C17.9-0.3-0.6,18.2-0.6,41c0,22.8,18.5,41.3,41.3,41.3c22.8,0,41.3-18.5,41.3-41.3C82.1,18.2,63.5-0.3,40.7-0.3z
	 M40.7,77c-19.9,0-36-16.1-36-36c0-19.9,16.1-36,36-36c19.9,0,36,16.1,36,36C76.7,60.9,60.6,77,40.7,77z"/>
<path d="M34.9,64.3h9.3V41h6.5l0.7-7.8h-7.2c0,0,0-2.9,0-4.4c0-1.8,0.4-2.6,2.1-2.6c1.4,0,5,0,5,0v-8.1c0,0-5.3,0-6.4,0
	c-6.9,0-10,3-10,8.9c0,5.1,0,6.2,0,6.2H30v7.9h4.8V64.3z"/>
<g>
</g>
<g>
</g>
<g>
</g>
<g>
</g>
<g>
</g>
<g>
</g>
</svg>
