<?xml version="1.0" encoding="utf-8"?>
<!-- Generator: Adobe Illustrator 18.1.1, SVG Export Plug-In . SVG Version: 6.00 Build 0)  -->
<svg version="1.1" id="Layer_1" xmlns="http://www.w3.org/2000/svg" xmlns:xlink="http://www.w3.org/1999/xlink" x="0px" y="0px"
	 width="82.7px" height="82.7px" viewBox="0 0 82.7 82.7" style="enable-background:new 0 0 82.7 82.7;" xml:space="preserve">
<path d="M41.1-0.3C18.3-0.3-0.2,18.2-0.2,41c0,22.8,18.5,41.3,41.3,41.3c22.8,0,41.3-18.5,41.3-41.3C82.4,18.2,63.9-0.3,41.1-0.3z
	 M41.1,77c-19.9,0-36-16.1-36-36c0-19.9,16.1-36,36-36c19.9,0,36,16.1,36,36C77.1,60.9,61,77,41.1,77z"/>
<path d="M29.3,61.3h24.5c4.4,0,8-3.6,8-8V35.2H49.9c1.2,1.7,1.9,3.8,1.9,6c0,5.7-4.6,10.4-10.4,10.4c-5.7,0-10.4-4.6-10.4-10.4
	c0-2.2,0.7-4.3,1.9-6H21.3v18.2C21.3,57.8,24.9,61.3,29.3,61.3z"/>
<path d="M41.1-0.3C18.3-0.3-0.2,18.2-0.2,41c0,22.8,18.5,41.3,41.3,41.3c22.8,0,41.3-18.5,41.3-41.3C82.4,18.2,63.9-0.3,41.1-0.3z
	 M41.1,77c-19.9,0-36-16.1-36-36c0-19.9,16.1-36,36-36c19.9,0,36,16.1,36,36C77.1,60.9,61,77,41.1,77z"/>
<path d="M41.5,30.8c2.9,0,5.5,1.2,7.4,3.1h12.9v-5.3h0c0-4.4-3.6-8-8-8H31.9v10.1h-1.6V20.6h-0.9c-0.1,0-0.1,0-0.2,0v10.1h-1.6v-9.9
	c-0.4,0.1-0.8,0.2-1.2,0.4v9.5h-1.6v-8.6c-2,1.4-3.4,3.8-3.4,6.5v5.3h12.8C36,32,38.6,30.8,41.5,30.8z M51.2,25.3
	c0-0.7,0.6-1.3,1.3-1.3h4.3c0.7,0,1.3,0.6,1.3,1.3v4.4c0,0.7-0.6,1.3-1.3,1.3h-4.3c-0.7,0-1.3-0.6-1.3-1.3V25.3z"/>
<path d="M46.8,35.2c-0.6-0.5-1.2-0.9-2-1.3c-1-0.5-2.1-0.7-3.3-0.7c-1.2,0-2.3,0.3-3.3,0.7c-0.7,0.3-1.4,0.8-2,1.3
	c-1.7,1.5-2.7,3.6-2.7,6c0,4.4,3.6,8,8,8c4.4,0,8-3.6,8-8C49.5,38.8,48.4,36.6,46.8,35.2z M41.5,47.1c-3.3,0-5.9-2.6-5.9-5.9
	s2.6-5.9,5.9-5.9c3.3,0,5.9,2.6,5.9,5.9S44.8,47.1,41.5,47.1z"/>
<path d="M29.3,61.3h24.5c4.4,0,8-3.6,8-8V35.2H49.9c1.2,1.7,1.9,3.8,1.9,6c0,5.7-4.6,10.4-10.4,10.4c-5.7,0-10.4-4.6-10.4-10.4
	c0-2.2,0.7-4.3,1.9-6H21.3v18.2C21.3,57.8,24.9,61.3,29.3,61.3z"/>
<g>
</g>
<g>
</g>
<g>
</g>
<g>
</g>
<g>
</g>
<g>
</g>
</svg>
